# xmcd
#
# Track frame offsets:
#	150
#	23270
#	47865
#	66470
#	87070
#	112312
#	128807
#	151952
#	170267
#	190305
#	212852
#	235525
#	250542
#
# Disc length: 3612 seconds
#
# Revision: 0
# Processed by: cddbd v1.4PL0 Copyright (c) Steve Scherf et al.
# Submitted via: EasyCDDAExtractor 4.6.9.1
#
DISCID=a70e1a0d
DTITLE=Chris Youlden - Second Sight
DYEAR=1991
DGENRE=Blues
TTITLE0=Don't Lead Me On
TTITLE1=Extraordinary Woman
TTITLE2=The Way It Is
TTITLE3=Let it Rain
TTITLE4=Soulmate
TTITLE5=Tounge Tied
TTITLE6=Making Love On The Telephone
TTITLE7=Turn Your Red Light Green
TTITLE8=Lady Of The Silver screen
TTITLE9=The Name Of The Game Is Love
TTITLE10=You Ain't Foolin' Me
TTITLE11=You Got A Hold Of My Heart
TTITLE12=That'll Get It
EXTD=
EXTT0=
EXTT1=
EXTT2=
EXTT3=
EXTT4=
EXTT5=
EXTT6=
EXTT7=
EXTT8=
EXTT9=
EXTT10=
EXTT11=
EXTT12=
PLAYORDER=
